<?xml version="1.0" encoding="utf-8"?>
<!-- Generator: Adobe Illustrator 19.0.0, SVG Export Plug-In . SVG Version: 6.00 Build 0)  -->
<svg version="1.1" id="Layer_1" xmlns="http://www.w3.org/2000/svg" xmlns:xlink="http://www.w3.org/1999/xlink" x="0px" y="0px"
	 viewBox="0 0 400 400" style="enable-background:new 0 0 400 400;" xml:space="preserve">
<style type="text/css">
	.st0{fill:#FFFFFF;stroke:#000000;stroke-miterlimit:10;}
</style>
<path id="XMLID_1_" class="st0" d="M39,44.5h321c8.6,0,15.5,6.9,15.5,15.5v18.5c0,8.6-6.9,15.5-15.5,15.5H39
	c-8.6,0-15.5-6.9-15.5-15.5V60C23.5,51.4,30.4,44.5,39,44.5z"/>
<path id="XMLID_2_" class="st0" d="M40,175.3h321c8.6,0,15.5,6.9,15.5,15.5v18.5c0,8.6-6.9,15.5-15.5,15.5H40
	c-8.6,0-15.5-6.9-15.5-15.5v-18.5C24.5,182.2,31.4,175.3,40,175.3z"/>
<path id="XMLID_3_" class="st0" d="M40,310.5h321c8.6,0,15.5,6.9,15.5,15.5v18.5c0,8.6-6.9,15.5-15.5,15.5H40
	c-8.6,0-15.5-6.9-15.5-15.5V326C24.5,317.4,31.4,310.5,40,310.5z"/>
</svg>
