<?xml version="1.0" encoding="utf-8"?>
<!-- Generator: Adobe Illustrator 19.0.0, SVG Export Plug-In . SVG Version: 6.00 Build 0)  -->
<svg version="1.1" id="Capa_1" xmlns="http://www.w3.org/2000/svg" xmlns:xlink="http://www.w3.org/1999/xlink" x="0px" y="0px"
	 viewBox="-15 18 367 367" style="enable-background:new -15 18 367 367;" xml:space="preserve">
<style type="text/css">
	.st0{fill:#FFFFFF;}
</style>
<g>
	<path class="st0" d="M145.9,215.2c24.1,0,80.8-29,80.8-98.6c0-9.7-0.2-19.1-1-27.9c-1.3-17.4-4.9-32.9-13.8-44.7
		c-11.4-16.1-31.3-26-66-26c-34.7,0-54.6,9.8-66,25.9C71,55.8,67.4,71.2,66.1,88.7c-0.8,8.9-1,18.2-1,27.9
		C65.1,186.2,121.8,215.2,145.9,215.2z M172.3,54.1c-2.4,6-3.5,8.9-5.9,14.9c-15.2-4.3-25.8-4.3-41,0c-2.4-6-3.5-8.9-5.9-14.9
		C138.6,48.4,153.3,48.4,172.3,54.1z M77.1,101.5c0.9,2,4.9,9.9,11,10.6c7,0.8,18.7-24.9,57.8-25c39.1,0.1,50.8,25.8,57.8,25
		c6.1-0.7,10.1-8.6,11-10.6c0.2,5,0.3,10,0.3,15.1c0,34-15,55.1-27.6,66.8c-15.9,14.7-33.5,20.1-41.5,20.1c-8,0-25.6-5.3-41.5-20.1
		c-12.6-11.7-27.6-32.8-27.6-66.8C76.9,111.6,76.9,106.5,77.1,101.5z"/>
	<path class="st0" d="M217.7,229.8c2.6-2.6,5.4-5,8.3-7.2c-11.2-6.1-22.1-11.9-29.2-15.7l-0.3-0.2c-2-1.1-4.4-0.8-6.2,0.5
		c-9.1,7.1-19,11.9-29.6,14.3c-1.9,0.4-3.4,1.7-4.1,3.5l-10.7,28.3l-10.7-28.3c-0.7-1.8-2.2-3.1-4.1-3.5
		c-10.5-2.3-20.5-7.2-29.6-14.3c-1.8-1.4-4.2-1.6-6.2-0.5c-17.1,9.2-58.3,31.3-69.8,39.1C5.9,259-2.6,306.9-4.2,316.3
		c-0.1,0.9-0.1,1.9,0.3,2.8c0.7,2,18.7,48.5,149.8,48.5c5.9,0,11.6-0.1,17.1-0.3c0.5-6.1,3-12,7.7-16.6l31.5-31.5
		C188.1,289.6,193.8,253.6,217.7,229.8z"/>
	<path class="st0" d="M321.4,237.5c-12.8-12.8-29.8-19.8-48-19.8c-18.1,0-35.2,7-48,19.8c-21.5,21.5-26.1,55-11,81.4l1.3,2.3
		l-37.3,37.3c-6,6-6,15.9,0,21.9c2.9,2.9,6.8,4.5,11,4.5c4.1,0,8-1.6,11-4.5l37.3-37.3l2.3,1.3c10.1,5.7,21.7,8.8,33.5,8.8
		c18.1,0,35.1-7,47.9-19.8c12.8-12.8,19.8-29.8,19.8-48S334.2,250.3,321.4,237.5z M304.8,316.8c-8.4,8.4-19.5,13-31.3,13
		c-11.9,0-23-4.6-31.3-13c-17.3-17.3-17.3-45.4,0-62.7c8.4-8.4,19.5-13,31.3-13s23,4.6,31.3,13c8.4,8.4,13,19.5,13,31.3
		C317.7,297.3,313.1,308.5,304.8,316.8z"/>
</g>
</svg>
